<mxfile host="Electron" agent="Mozilla/5.0 (Macintosh; Intel Mac OS X 10_15_7) AppleWebKit/537.36 (KHTML, like Gecko) draw.io/27.0.9 Chrome/134.0.6998.205 Electron/35.4.0 Safari/537.36" version="27.0.9">
  <diagram name="Morpheus Architecture" id="morpheus-arch">
    <mxGraphModel dx="1371" dy="898" grid="1" gridSize="10" guides="1" tooltips="1" connect="1" arrows="1" fold="1" page="1" pageScale="1" pageWidth="1654" pageHeight="1169" math="0" shadow="0">
      <root>
        <mxCell id="0" />
        <mxCell id="1" parent="0" />
        <mxCell id="user" value="👤 Engineer/User" style="rounded=1;whiteSpace=wrap;html=1;fillColor=#e1f5fe;strokeColor=#01579b;fontStyle=1;fontSize=12;" parent="1" vertex="1">
          <mxGeometry x="50" y="50" width="120" height="60" as="geometry" />
        </mxCell>
        <mxCell id="chatui" value="💬 Chat Interface" style="rounded=1;whiteSpace=wrap;html=1;fillColor=#e1f5fe;strokeColor=#01579b;fontStyle=1;fontSize=12;" parent="1" vertex="1">
          <mxGeometry x="250" y="50" width="120" height="60" as="geometry" />
        </mxCell>
        <mxCell id="fastapi" value="🚀 FastAPI Application&lt;br&gt;Port: 8000" style="rounded=1;whiteSpace=wrap;html=1;fillColor=#f3e5f5;strokeColor=#4a148c;fontStyle=1;fontSize=12;" parent="1" vertex="1">
          <mxGeometry x="450" y="50" width="150" height="60" as="geometry" />
        </mxCell>
        <mxCell id="agent-group" value="AI Multi-Agent System" style="swimlane;whiteSpace=wrap;html=1;fillColor=#e8f5e8;strokeColor=#2e7d32;fontStyle=1;fontSize=14;" parent="1" vertex="1">
          <mxGeometry x="50" y="200" width="550" height="200" as="geometry" />
        </mxCell>
        <mxCell id="supervisor" value="🎯 Supervisor Agent&lt;br&gt;Orchestrates Flow" style="rounded=1;whiteSpace=wrap;html=1;fillColor=#c8e6c9;strokeColor=#2e7d32;fontSize=10;" parent="agent-group" vertex="1">
          <mxGeometry x="20" y="40" width="100" height="60" as="geometry" />
        </mxCell>
        <mxCell id="guidance" value="📚 Guidance Agent&lt;br&gt;Educational Content" style="rounded=1;whiteSpace=wrap;html=1;fillColor=#c8e6c9;strokeColor=#2e7d32;fontSize=10;" parent="agent-group" vertex="1">
          <mxGeometry x="140" y="40" width="100" height="60" as="geometry" />
        </mxCell>
        <mxCell id="discrepancy" value="🔍 Discrepancy Agent&lt;br&gt;Validates Claims" style="rounded=1;whiteSpace=wrap;html=1;fillColor=#c8e6c9;strokeColor=#2e7d32;fontSize=10;" parent="agent-group" vertex="1">
          <mxGeometry x="260" y="40" width="100" height="60" as="geometry" />
        </mxCell>
        <mxCell id="feedback" value="💡 Feedback Agent&lt;br&gt;Constructive Feedback" style="rounded=1;whiteSpace=wrap;html=1;fillColor=#c8e6c9;strokeColor=#2e7d32;fontSize=10;" parent="agent-group" vertex="1">
          <mxGeometry x="380" y="40" width="100" height="60" as="geometry" />
        </mxCell>
        <mxCell id="grading" value="📊 Grading Agent&lt;br&gt;Expertise Evaluation" style="rounded=1;whiteSpace=wrap;html=1;fillColor=#c8e6c9;strokeColor=#2e7d32;fontSize=10;" parent="agent-group" vertex="1">
          <mxGeometry x="140" y="120" width="100" height="60" as="geometry" />
        </mxCell>
        <mxCell id="evasion" value="🛡️ Evasion Detector&lt;br&gt;Detects Avoidance" style="rounded=1;whiteSpace=wrap;html=1;fillColor=#c8e6c9;strokeColor=#2e7d32;fontSize=10;" parent="agent-group" vertex="1">
          <mxGeometry x="260" y="120" width="100" height="60" as="geometry" />
        </mxCell>
        <mxCell id="service-group" value="Core Services" style="swimlane;whiteSpace=wrap;html=1;fillColor=#fff3e0;strokeColor=#e65100;fontStyle=1;fontSize=14;" parent="1" vertex="1">
          <mxGeometry x="700" y="200" width="280" height="200" as="geometry" />
        </mxCell>
        <mxCell id="skillmatrix" value="📋 Skill Matrix Service" style="rounded=1;whiteSpace=wrap;html=1;fillColor=#ffcc02;strokeColor=#e65100;fontSize=10;" parent="service-group" vertex="1">
          <mxGeometry x="20" y="40" width="110" height="60" as="geometry" />
        </mxCell>
        <mxCell id="assessment" value="🎯 Assessment Service" style="rounded=1;whiteSpace=wrap;html=1;fillColor=#ffcc02;strokeColor=#e65100;fontSize=10;" parent="service-group" vertex="1">
          <mxGeometry x="150" y="40" width="110" height="60" as="geometry" />
        </mxCell>
        <mxCell id="notification" value="📧 Notification Service" style="rounded=1;whiteSpace=wrap;html=1;fillColor=#ffcc02;strokeColor=#e65100;fontSize=10;" parent="service-group" vertex="1">
          <mxGeometry x="20" y="120" width="110" height="60" as="geometry" />
        </mxCell>
        <mxCell id="analytics" value="📈 Analytics Service" style="rounded=1;whiteSpace=wrap;html=1;fillColor=#ffcc02;strokeColor=#e65100;fontSize=10;" parent="service-group" vertex="1">
          <mxGeometry x="150" y="120" width="110" height="60" as="geometry" />
        </mxCell>
        <mxCell id="data-group" value="Data Storage" style="swimlane;whiteSpace=wrap;html=1;fillColor=#fce4ec;strokeColor=#880e4f;fontStyle=1;fontSize=14;" parent="1" vertex="1">
          <mxGeometry x="1050" y="200" width="310" height="200" as="geometry" />
        </mxCell>
        <mxCell id="postgresql" value="🐘 PostgreSQL&lt;br&gt;+ pgvector" style="shape=cylinder3;whiteSpace=wrap;html=1;boundedLbl=1;backgroundOutline=1;size=15;fillColor=#f8bbd9;strokeColor=#880e4f;fontSize=10;" parent="data-group" vertex="1">
          <mxGeometry x="20" y="40" width="80" height="80" as="geometry" />
        </mxCell>
        <mxCell id="redis" value="🔴 Redis Cache" style="shape=cylinder3;whiteSpace=wrap;html=1;boundedLbl=1;backgroundOutline=1;size=15;fillColor=#f8bbd9;strokeColor=#880e4f;fontSize=10;" parent="data-group" vertex="1">
          <mxGeometry x="120" y="40" width="80" height="80" as="geometry" />
        </mxCell>
        <mxCell id="minio" value="📦 MinIO&lt;br&gt;File Storage&lt;br&gt;Port: 9001" style="shape=cylinder3;whiteSpace=wrap;html=1;boundedLbl=1;backgroundOutline=1;size=15;fillColor=#f8bbd9;strokeColor=#880e4f;fontSize=10;" parent="data-group" vertex="1">
          <mxGeometry x="210" y="40" width="80" height="80" as="geometry" />
        </mxCell>
        <mxCell id="ai-group" value="AI/ML Services" style="swimlane;whiteSpace=wrap;html=1;fillColor=#f1f8e9;strokeColor=#33691e;fontStyle=1;fontSize=14;" parent="1" vertex="1">
          <mxGeometry x="50" y="480" width="420" height="150" as="geometry" />
        </mxCell>
        <mxCell id="openai" value="🤖 OpenAI API" style="rounded=1;whiteSpace=wrap;html=1;fillColor=#aed581;strokeColor=#33691e;fontSize=10;" parent="ai-group" vertex="1">
          <mxGeometry x="20" y="40" width="80" height="50" as="geometry" />
        </mxCell>
        <mxCell id="langchain" value="🔗 LangChain" style="rounded=1;whiteSpace=wrap;html=1;fillColor=#aed581;strokeColor=#33691e;fontSize=10;" parent="ai-group" vertex="1">
          <mxGeometry x="120" y="40" width="80" height="50" as="geometry" />
        </mxCell>
        <mxCell id="langgraph" value="📊 LangGraph" style="rounded=1;whiteSpace=wrap;html=1;fillColor=#aed581;strokeColor=#33691e;fontSize=10;" parent="ai-group" vertex="1">
          <mxGeometry x="220" y="40" width="80" height="50" as="geometry" />
        </mxCell>
        <mxCell id="tavily" value="🔍 Tavily Search" style="rounded=1;whiteSpace=wrap;html=1;fillColor=#aed581;strokeColor=#33691e;fontSize=10;" parent="ai-group" vertex="1">
          <mxGeometry x="320" y="40" width="80" height="50" as="geometry" />
        </mxCell>
        <mxCell id="task-group" value="Background Tasks" style="swimlane;whiteSpace=wrap;html=1;fillColor=#e0f2f1;strokeColor=#00695c;fontStyle=1;fontSize=14;" parent="1" vertex="1">
          <mxGeometry x="500" y="480" width="200" height="150" as="geometry" />
        </mxCell>
        <mxCell id="celery" value="⚙️ Celery&lt;br&gt;Task Queue" style="rounded=1;whiteSpace=wrap;html=1;fillColor=#80cbc4;strokeColor=#00695c;fontSize=10;" parent="task-group" vertex="1">
          <mxGeometry x="20" y="40" width="80" height="50" as="geometry" />
        </mxCell>
        <mxCell id="celeryworker" value="👷 Celery Workers" style="rounded=1;whiteSpace=wrap;html=1;fillColor=#80cbc4;strokeColor=#00695c;fontSize=10;" parent="task-group" vertex="1">
          <mxGeometry x="110" y="40" width="80" height="50" as="geometry" />
        </mxCell>
        <mxCell id="obs-group" value="Observability &amp; Monitoring" style="swimlane;whiteSpace=wrap;html=1;fillColor=#f9fbe7;strokeColor=#827717;fontStyle=1;fontSize=14;" parent="1" vertex="1">
          <mxGeometry x="750" y="480" width="420" height="150" as="geometry" />
        </mxCell>
        <mxCell id="otel" value="📡 OpenTelemetry" style="rounded=1;whiteSpace=wrap;html=1;fillColor=#dce775;strokeColor=#827717;fontSize=10;" parent="obs-group" vertex="1">
          <mxGeometry x="20" y="40" width="80" height="50" as="geometry" />
        </mxCell>
        <mxCell id="jaeger" value="🔍 Jaeger Tracing&lt;br&gt;Port: 16686" style="rounded=1;whiteSpace=wrap;html=1;fillColor=#dce775;strokeColor=#827717;fontSize=10;" parent="obs-group" vertex="1">
          <mxGeometry x="120" y="40" width="80" height="50" as="geometry" />
        </mxCell>
        <mxCell id="grafana" value="📊 Grafana Dashboard&lt;br&gt;Port: 3000" style="rounded=1;whiteSpace=wrap;html=1;fillColor=#dce775;strokeColor=#827717;fontSize=10;" parent="obs-group" vertex="1">
          <mxGeometry x="220" y="40" width="80" height="50" as="geometry" />
        </mxCell>
        <mxCell id="loki" value="📝 Loki Logs" style="rounded=1;whiteSpace=wrap;html=1;fillColor=#dce775;strokeColor=#827717;fontSize=10;" parent="obs-group" vertex="1">
          <mxGeometry x="320" y="40" width="80" height="50" as="geometry" />
        </mxCell>
        <mxCell id="levels-group" value="Expertise Levels" style="swimlane;whiteSpace=wrap;html=1;fillColor=#fff8e1;strokeColor=#ff8f00;fontStyle=1;fontSize=14;" parent="1" vertex="1">
          <mxGeometry x="50" y="700" width="1100" height="120" as="geometry" />
        </mxCell>
        <mxCell id="level1" value="1. Not Informed&lt;br&gt;❌ No Knowledge" style="rounded=1;whiteSpace=wrap;html=1;fillColor=#ffebee;strokeColor=#c62828;fontSize=9;" parent="levels-group" vertex="1">
          <mxGeometry x="20" y="40" width="120" height="50" as="geometry" />
        </mxCell>
        <mxCell id="level2" value="2. Informed Basics&lt;br&gt;📖 Basic Concepts" style="rounded=1;whiteSpace=wrap;html=1;fillColor=#fff3e0;strokeColor=#e65100;fontSize=9;" parent="levels-group" vertex="1">
          <mxGeometry x="160" y="40" width="120" height="50" as="geometry" />
        </mxCell>
        <mxCell id="level3" value="3. Informed Details&lt;br&gt;🎯 Strategic Understanding" style="rounded=1;whiteSpace=wrap;html=1;fillColor=#f3e5f5;strokeColor=#4a148c;fontSize=9;" parent="levels-group" vertex="1">
          <mxGeometry x="300" y="40" width="120" height="50" as="geometry" />
        </mxCell>
        <mxCell id="level4" value="4. Practice &amp; Lab&lt;br&gt;🧪 Practical Application" style="rounded=1;whiteSpace=wrap;html=1;fillColor=#e8f5e8;strokeColor=#2e7d32;fontSize=9;" parent="levels-group" vertex="1">
          <mxGeometry x="440" y="40" width="120" height="50" as="geometry" />
        </mxCell>
        <mxCell id="level5" value="5. Production Maintenance&lt;br&gt;⚙️ Prod Environment" style="rounded=1;whiteSpace=wrap;html=1;fillColor=#e1f5fe;strokeColor=#01579b;fontSize=9;" parent="levels-group" vertex="1">
          <mxGeometry x="580" y="40" width="120" height="50" as="geometry" />
        </mxCell>
        <mxCell id="level6" value="6. Production from Scratch&lt;br&gt;🏗️ Full System Setup" style="rounded=1;whiteSpace=wrap;html=1;fillColor=#f1f8e9;strokeColor=#33691e;fontSize=9;" parent="levels-group" vertex="1">
          <mxGeometry x="720" y="40" width="120" height="50" as="geometry" />
        </mxCell>
        <mxCell id="level7" value="7. Educator/Expert&lt;br&gt;🎓 Teaching &amp; Leadership" style="rounded=1;whiteSpace=wrap;html=1;fillColor=#e0f2f1;strokeColor=#00695c;fontSize=9;" parent="levels-group" vertex="1">
          <mxGeometry x="860" y="40" width="120" height="50" as="geometry" />
        </mxCell>
        <mxCell id="conn1" value="" style="endArrow=classic;html=1;rounded=0;" parent="1" source="user" target="chatui" edge="1">
          <mxGeometry width="50" height="50" relative="1" as="geometry">
            <mxPoint x="200" y="300" as="sourcePoint" />
            <mxPoint x="250" y="250" as="targetPoint" />
          </mxGeometry>
        </mxCell>
        <mxCell id="conn2" value="" style="endArrow=classic;html=1;rounded=0;" parent="1" source="chatui" target="fastapi" edge="1">
          <mxGeometry width="50" height="50" relative="1" as="geometry">
            <mxPoint x="400" y="300" as="sourcePoint" />
            <mxPoint x="450" y="250" as="targetPoint" />
          </mxGeometry>
        </mxCell>
        <mxCell id="conn3" value="" style="endArrow=classic;html=1;rounded=0;" parent="1" source="fastapi" target="supervisor" edge="1">
          <mxGeometry width="50" height="50" relative="1" as="geometry">
            <mxPoint x="500" y="150" as="sourcePoint" />
            <mxPoint x="150" y="250" as="targetPoint" />
          </mxGeometry>
        </mxCell>
        <mxCell id="conn4" value="" style="endArrow=classic;html=1;rounded=0;" parent="1" source="guidance" target="skillmatrix" edge="1">
          <mxGeometry width="50" height="50" relative="1" as="geometry">
            <mxPoint x="600" y="300" as="sourcePoint" />
            <mxPoint x="650" y="250" as="targetPoint" />
          </mxGeometry>
        </mxCell>
        <mxCell id="conn5" value="" style="endArrow=classic;html=1;rounded=0;" parent="1" source="skillmatrix" target="postgresql" edge="1">
          <mxGeometry width="50" height="50" relative="1" as="geometry">
            <mxPoint x="900" y="300" as="sourcePoint" />
            <mxPoint x="950" y="250" as="targetPoint" />
          </mxGeometry>
        </mxCell>
        <mxCell id="conn6" value="" style="endArrow=classic;html=1;rounded=0;" parent="1" source="supervisor" target="openai" edge="1">
          <mxGeometry width="50" height="50" relative="1" as="geometry">
            <mxPoint x="100" y="400" as="sourcePoint" />
            <mxPoint x="100" y="500" as="targetPoint" />
          </mxGeometry>
        </mxCell>
        <mxCell id="conn7" value="" style="endArrow=classic;html=1;rounded=0;" parent="1" source="fastapi" target="celery" edge="1">
          <mxGeometry width="50" height="50" relative="1" as="geometry">
            <mxPoint x="500" y="150" as="sourcePoint" />
            <mxPoint x="550" y="500" as="targetPoint" />
          </mxGeometry>
        </mxCell>
        <mxCell id="conn8" value="" style="endArrow=classic;html=1;rounded=0;" parent="1" source="fastapi" target="otel" edge="1">
          <mxGeometry width="50" height="50" relative="1" as="geometry">
            <mxPoint x="600" y="150" as="sourcePoint" />
            <mxPoint x="800" y="500" as="targetPoint" />
          </mxGeometry>
        </mxCell>
        <mxCell id="level-arrow1" value="" style="endArrow=classic;html=1;rounded=0;" parent="1" source="level1" target="level2" edge="1">
          <mxGeometry width="50" height="50" relative="1" as="geometry">
            <mxPoint x="150" y="750" as="sourcePoint" />
            <mxPoint x="200" y="750" as="targetPoint" />
          </mxGeometry>
        </mxCell>
        <mxCell id="level-arrow2" value="" style="endArrow=classic;html=1;rounded=0;" parent="1" source="level2" target="level3" edge="1">
          <mxGeometry width="50" height="50" relative="1" as="geometry">
            <mxPoint x="290" y="750" as="sourcePoint" />
            <mxPoint x="340" y="750" as="targetPoint" />
          </mxGeometry>
        </mxCell>
        <mxCell id="level-arrow3" value="" style="endArrow=classic;html=1;rounded=0;" parent="1" source="level3" target="level4" edge="1">
          <mxGeometry width="50" height="50" relative="1" as="geometry">
            <mxPoint x="430" y="750" as="sourcePoint" />
            <mxPoint x="480" y="750" as="targetPoint" />
          </mxGeometry>
        </mxCell>
        <mxCell id="level-arrow4" value="" style="endArrow=classic;html=1;rounded=0;" parent="1" source="level4" target="level5" edge="1">
          <mxGeometry width="50" height="50" relative="1" as="geometry">
            <mxPoint x="570" y="750" as="sourcePoint" />
            <mxPoint x="620" y="750" as="targetPoint" />
          </mxGeometry>
        </mxCell>
        <mxCell id="level-arrow5" value="" style="endArrow=classic;html=1;rounded=0;" parent="1" source="level5" target="level6" edge="1">
          <mxGeometry width="50" height="50" relative="1" as="geometry">
            <mxPoint x="710" y="750" as="sourcePoint" />
            <mxPoint x="760" y="750" as="targetPoint" />
          </mxGeometry>
        </mxCell>
        <mxCell id="level-arrow6" value="" style="endArrow=classic;html=1;rounded=0;" parent="1" source="level6" target="level7" edge="1">
          <mxGeometry width="50" height="50" relative="1" as="geometry">
            <mxPoint x="850" y="750" as="sourcePoint" />
            <mxPoint x="900" y="750" as="targetPoint" />
          </mxGeometry>
        </mxCell>
      </root>
    </mxGraphModel>
  </diagram>
</mxfile>
